<svg xmlns="http://www.w3.org/2000/svg" viewBox="0 0 24 24" fill="none">
    <path d="M20.375 1H5.5C4.57174 1 3.6815 1.36875 3.02513 2.02513C2.36875 2.6815 2 3.57174 2 4.5V22.875C2 23.1071 2.09219 23.3296 2.25628 23.4937C2.42038 23.6578 2.64294 23.75 2.875 23.75H18.625C18.8571 23.75 19.0796 23.6578 19.2437 23.4937C19.4078 23.3296 19.5 23.1071 19.5 22.875C19.5 22.6429 19.4078 22.4204 19.2437 22.2563C19.0796 22.0922 18.8571 22 18.625 22H3.75C3.75 21.5359 3.93437 21.0908 4.26256 20.7626C4.59075 20.4344 5.03587 20.25 5.5 20.25H20.375C20.6071 20.25 20.8296 20.1578 20.9937 19.9937C21.1578 19.8296 21.25 19.6071 21.25 19.375V1.875C21.25 1.64294 21.1578 1.42038 20.9937 1.25628C20.8296 1.09219 20.6071 1 20.375 1ZM10.75 2.75H16V10.625L13.8989 9.05C13.7474 8.93641 13.5632 8.875 13.3739 8.875C13.1846 8.875 13.0004 8.93641 12.8489 9.05L10.75 10.625V2.75ZM19.5 18.5H5.5C4.88547 18.4992 4.28168 18.6611 3.75 18.9692V4.5C3.75 4.03587 3.93437 3.59075 4.26256 3.26256C4.59075 2.93437 5.03587 2.75 5.5 2.75H9V12.375C9 12.5375 9.04525 12.6968 9.13068 12.835C9.21611 12.9732 9.33835 13.085 9.48369 13.1576C9.62903 13.2303 9.79174 13.2611 9.95358 13.2465C10.1154 13.2319 10.27 13.1725 10.4 13.075L13.375 10.8438L16.3511 13.075C16.5023 13.1884 16.6861 13.2498 16.875 13.25C17.1071 13.25 17.3296 13.1578 17.4937 12.9937C17.6578 12.8296 17.75 12.6071 17.75 12.375V2.75H19.5V18.5Z" fill="currentColor"/>
</svg>