<svg width="24" height="24" viewBox="0 0 24 24" fill="none" xmlns="http://www.w3.org/2000/svg">
    <path d="M23.1525 10.6725L19.5 17.0025V6L22.3275 7.635C22.8348 7.93292 23.2053 8.4177 23.3595 8.98548C23.5137 9.55326 23.4394 10.1589 23.1525 10.6725Z"
          fill="currentColor"/>
    <path d="M4.49975 6.19501V16.755L1.04975 10.755C0.901852 10.499 0.805866 10.2163 0.767284 9.92314C0.728701 9.62998 0.74828 9.33209 0.824901 9.04651C0.901521 8.76092 1.03368 8.49324 1.21382 8.25877C1.39396 8.02429 1.61855 7.82762 1.87475 7.68001L4.49975 6.19501Z"
          fill="currentColor"/>
    <path d="M15.75 3H8.25C7.65326 3 7.08097 3.23705 6.65901 3.65901C6.23705 4.08097 6 4.65326 6 5.25V18.75C6 19.3467 6.23705 19.919 6.65901 20.341C7.08097 20.7629 7.65326 21 8.25 21H15.75C16.3467 21 16.919 20.7629 17.341 20.341C17.7629 19.919 18 19.3467 18 18.75V5.25C18 4.65326 17.7629 4.08097 17.341 3.65901C16.919 3.23705 16.3467 3 15.75 3ZM9.75 6C9.89834 6 10.0433 6.04399 10.1667 6.1264C10.29 6.20881 10.3861 6.32594 10.4429 6.46299C10.4997 6.60003 10.5145 6.75083 10.4856 6.89632C10.4567 7.0418 10.3852 7.17544 10.2803 7.28033C10.1754 7.38522 10.0418 7.45665 9.89632 7.48559C9.75083 7.51453 9.60003 7.49968 9.46299 7.44291C9.32594 7.38614 9.20881 7.29001 9.1264 7.16668C9.04399 7.04334 9 6.89834 9 6.75C9 6.55109 9.07902 6.36032 9.21967 6.21967C9.36032 6.07902 9.55109 6 9.75 6ZM14.25 18C14.1017 18 13.9567 17.956 13.8333 17.8736C13.71 17.7912 13.6139 17.6741 13.5571 17.537C13.5003 17.4 13.4855 17.2492 13.5144 17.1037C13.5433 16.9582 13.6148 16.8246 13.7197 16.7197C13.8246 16.6148 13.9582 16.5434 14.1037 16.5144C14.2492 16.4855 14.4 16.5003 14.537 16.5571C14.6741 16.6139 14.7912 16.71 14.8736 16.8333C14.956 16.9567 15 17.1017 15 17.25C15 17.4489 14.921 17.6397 14.7803 17.7803C14.6397 17.921 14.4489 18 14.25 18ZM12 15C11.4067 15 10.8266 14.8241 10.3333 14.4944C9.83994 14.1648 9.45542 13.6962 9.22836 13.1481C9.0013 12.5999 8.94189 11.9967 9.05764 11.4147C9.1734 10.8328 9.45912 10.2982 9.87868 9.87868C10.2982 9.45912 10.8328 9.1734 11.4147 9.05764C11.9967 8.94189 12.5999 9.0013 13.148 9.22836C13.6962 9.45542 14.1648 9.83994 14.4944 10.3333C14.8241 10.8266 15 11.4067 15 12C15 12.7956 14.6839 13.5587 14.1213 14.1213C13.5587 14.6839 12.7956 15 12 15Z"
          fill="currentColor"/>
    <path d="M12 13.5C12.8284 13.5 13.5 12.8284 13.5 12C13.5 11.1716 12.8284 10.5 12 10.5C11.1716 10.5 10.5 11.1716 10.5 12C10.5 12.8284 11.1716 13.5 12 13.5Z"
          fill="currentColor"/>
</svg>
