<svg width="30" height="30" viewBox="0 0 30 30" fill="none" xmlns="http://www.w3.org/2000/svg">
    <path d="M10.0323 10.0564C9.44441 10.0564 8.96781 10.533 8.96781 11.1209C8.96781 11.7088 9.44441 12.1854 10.0323 12.1854V10.0564ZM19.9677 12.1854C20.5555 12.1854 21.0322 11.7088 21.0322 11.1209C21.0322 10.533 20.5555 10.0564 19.9677 10.0564V12.1854ZM11.2742 13.6885C10.6863 13.6885 10.2097 14.1652 10.2097 14.7531C10.2097 15.341 10.6863 15.8176 11.2742 15.8176V13.6885ZM18.7257 15.8176C19.3136 15.8176 19.7902 15.341 19.7902 14.7531C19.7902 14.1652 19.3136 13.6885 18.7257 13.6885V15.8176ZM10.2637 5.06454V4L10.2559 4.00006L10.2637 5.06454ZM19.7377 5.06454L19.7458 4.00003H19.7377V5.06454ZM24.9353 10.3403L23.8708 10.3325V10.3403H24.9353ZM24.9353 16.7458H23.8708V16.7536L24.9353 16.7458ZM19.7363 22.0216V23.0861H19.7441L19.7363 22.0216ZM10.2637 22.0216V20.9571C10.0814 20.9571 9.9022 21.0039 9.74321 21.093L10.2637 22.0216ZM5.06464 24.9355H4.00014C4.00014 25.3133 4.20048 25.6629 4.52653 25.854C4.85257 26.045 5.25546 26.0488 5.5851 25.864L5.06464 24.9355ZM5.06464 10.3403H6.12917L6.12912 10.3325L5.06464 10.3403ZM10.0323 12.1854H19.9677V10.0564H10.0323V12.1854ZM11.2742 15.8176H18.7257V13.6885H11.2742V15.8176ZM10.2637 6.12906H19.7377V4.00003L10.2637 4V6.12906ZM19.7296 6.12903C22.0339 6.14645 23.8877 8.02824 23.8708 10.3325L25.9998 10.3481C26.0254 6.86826 23.2256 4.02634 19.7458 4.00003L19.7296 6.12903ZM23.8708 10.3403V16.7458H25.9998V10.3403H23.8708ZM23.8708 16.7536C23.8789 17.8605 23.4472 18.925 22.6702 19.7133L24.1866 21.2077C25.3598 20.0172 26.012 18.4095 25.9998 16.738L23.8708 16.7536ZM22.6702 19.7133C21.8934 20.5016 20.8353 20.949 19.7285 20.9571L19.7441 23.0861C21.4154 23.0739 23.0135 22.3983 24.1866 21.2077L22.6702 19.7133ZM19.7363 20.9571H10.2637V23.0861H19.7363V20.9571ZM9.74321 21.093L4.54419 24.007L5.5851 25.864L10.7841 22.9501L9.74321 21.093ZM6.12914 24.9355L6.12917 10.3403H4.00014V24.9355H6.12914ZM6.12912 10.3325C6.12098 9.22574 6.55284 8.16111 7.32969 7.3728L5.81328 5.8784C4.64009 7.0689 3.98789 8.67672 4.00017 10.3481L6.12912 10.3325ZM7.32969 7.3728C8.10653 6.5845 9.1647 6.13709 10.2714 6.12903L10.2559 4.00006C8.58454 4.01223 6.98646 4.6879 5.81328 5.8784L7.32969 7.3728Z"
          fill="currentColor"/>
</svg>
