<svg xmlns="http://www.w3.org/2000/svg" viewBox="0 0 64 64" fill="none">
    <path d="M32.0005 30.4004L21.6005 40.8004C21.1116 41.2892 20.4894 41.5337 19.7338 41.5337C18.9782 41.5337 18.356 41.2892 17.8671 40.8004C17.3782 40.3115 17.1338 39.6892 17.1338 38.9337C17.1338 38.1781 17.3782 37.5559 17.8671 37.067L30.1338 24.8004C30.4005 24.5337 30.6893 24.3449 31.0005 24.2337C31.3117 24.1225 31.645 24.067 32.0005 24.067C32.3559 24.067 32.6893 24.1225 33.0005 24.2337C33.3117 24.3449 33.6005 24.5337 33.8671 24.8004L46.1338 37.067C46.6226 37.5559 46.8671 38.1781 46.8671 38.9337C46.8671 39.6892 46.6226 40.3115 46.1338 40.8004C45.645 41.2892 45.0226 41.5337 44.2671 41.5337C43.5117 41.5337 42.8893 41.2892 42.4005 40.8004L32.0005 30.4004Z" fill="currentColor"/>
</svg>