<svg xmlns="http://www.w3.org/2000/svg" viewBox="0 0 64 64" fill="none">
    <path d="M31.9995 33.5994L42.3995 23.1994C42.8884 22.7105 43.5106 22.4661 44.2662 22.4661C45.0218 22.4661 45.644 22.7105 46.1329 23.1994C46.6218 23.6883 46.8662 24.3105 46.8662 25.0661C46.8662 25.8216 46.6218 26.4439 46.1329 26.9327L33.8662 39.1994C33.5995 39.4661 33.3107 39.6549 32.9995 39.7661C32.6883 39.8773 32.355 39.9327 31.9995 39.9327C31.6441 39.9327 31.3107 39.8773 30.9995 39.7661C30.6883 39.6549 30.3995 39.4661 30.1329 39.1994L17.8662 26.9327C17.3774 26.4439 17.1329 25.8216 17.1329 25.0661C17.1329 24.3105 17.3774 23.6883 17.8662 23.1994C18.355 22.7105 18.9774 22.4661 19.7329 22.4661C20.4883 22.4661 21.1107 22.7105 21.5995 23.1994L31.9995 33.5994Z" fill="currentColor"/>
</svg>