<svg width="24" height="24" viewBox="0 0 24 24" fill="none" xmlns="http://www.w3.org/2000/svg">
    <path d="M6 19H18" stroke="currentColor" stroke-width="2" stroke-linecap="round" stroke-linejoin="round"/>
    <path d="M16.5583 15.9999H7.44135C6.58049 15.9999 5.81621 15.449 5.54398 14.6324L3.70694 9.12126C3.446 8.33844 4.26178 7.63092 4.99983 7.99994L5.7105 8.35527C6.48047 8.74026 7.41042 8.58935 8.01914 7.98063L10.5856 5.41415C11.3666 4.63311 12.633 4.6331 13.414 5.41415L15.9805 7.98063C16.5892 8.58935 17.5192 8.74026 18.2891 8.35527L18.9998 7.99994C19.7379 7.63092 20.5536 8.33844 20.2927 9.12126L18.4556 14.6324C18.1834 15.449 17.4191 15.9999 16.5583 15.9999Z"
          stroke="currentColor" stroke-width="2" stroke-linejoin="round"/>
</svg>
