<svg xmlns="http://www.w3.org/2000/svg" width="36" height="36" viewBox="0 0 36 36" fill="none">
    <path d="M32.25 21.75C34.321 21.75 36 20.071 36 18C36 15.9289 34.321 14.25 32.25 14.25C30.1789 14.25 28.5 15.9289 28.5 18C28.5 20.071 30.1789 21.75 32.25 21.75Z"
          fill="currentColor"/>
    <path d="M18 21.75C20.071 21.75 21.75 20.071 21.75 18C21.75 15.9289 20.071 14.25 18 14.25C15.9289 14.25 14.25 15.9289 14.25 18C14.25 20.071 15.9289 21.75 18 21.75Z"
          fill="currentColor"/>
    <path d="M3.74998 21.75C5.82103 21.75 7.49995 20.071 7.49995 18C7.49995 15.9289 5.82103 14.25 3.74998 14.25C1.67892 14.25 0 15.9289 0 18C0 20.071 1.67892 21.75 3.74998 21.75Z"
          fill="currentColor"/>
</svg>