<svg xmlns="http://www.w3.org/2000/svg" viewBox="0 0 60 60" fill="none">
    <path fill-rule="evenodd" clip-rule="evenodd" d="M17.5 24.8543C17.5034 22.4111 18.2374 20.0247 19.6075 18.0018C20.9862 15.9612 22.9382 14.3745 25.2175 13.4418C29.8852 11.5293 35.2435 12.5825 38.84 16.1193C41.479 18.724 42.799 22.3823 42.431 26.072C42.063 29.7617 40.0465 33.0872 36.945 35.1192C34.8692 36.4275 32.453 37.093 30 37.0318C26.7138 37.1 23.5346 35.862 21.16 33.5892C18.8211 31.2842 17.503 28.1382 17.5 24.8543Z" stroke="currentColor" stroke-width="3" stroke-linecap="round" stroke-linejoin="round"/>
    <path d="M31.9091 37.846C31.9091 36.8265 31.0543 36 30 36C28.9457 36 28.0909 36.8265 28.0909 37.846H31.9091ZM28.0909 43.2314C28.0909 44.2511 28.9457 45.0774 30 45.0774C31.0543 45.0774 31.9091 44.2511 31.9091 43.2314H28.0909ZM35.0909 45.0774C36.1452 45.0774 37 44.2511 37 43.2314C37 42.2119 36.1452 41.3854 35.0909 41.3854V45.0774ZM30 41.3854C28.9457 41.3854 28.0909 42.2119 28.0909 43.2314C28.0909 44.2511 28.9457 45.0774 30 45.0774V41.3854ZM28.0909 48.154C28.0909 49.1737 28.9457 50 30 50C31.0543 50 31.9091 49.1737 31.9091 48.154H28.0909ZM31.9091 43.2314C31.9091 42.2119 31.0543 41.3854 30 41.3854C28.9457 41.3854 28.0909 42.2119 28.0909 43.2314H31.9091ZM30 45.0774C31.0543 45.0774 31.9091 44.2511 31.9091 43.2314C31.9091 42.2119 31.0543 41.3854 30 41.3854V45.0774ZM24.9091 41.3854C23.8547 41.3854 23 42.2119 23 43.2314C23 44.2511 23.8547 45.0774 24.9091 45.0774V41.3854ZM28.0909 37.846V43.2314H31.9091V37.846H28.0909ZM35.0909 41.3854H30V45.0774H35.0909V41.3854ZM31.9091 48.154V43.2314H28.0909V48.154H31.9091ZM30 41.3854H24.9091V45.0774H30V41.3854Z" fill="currentColor"/>
</svg>