<svg xmlns="http://www.w3.org/2000/svg" viewBox="0 0 30 30" fill="none">
    <path d="M5.08753 18.6624C5.00222 18.7551 4.9318 18.8606 4.87878 18.9749C4.86503 19.0036 4.85003 19.0286 4.83878 19.0586C4.82985 19.0748 4.82192 19.0915 4.81503 19.1086L2.56503 25.8586C2.50247 26.0465 2.48542 26.2464 2.51527 26.4421C2.54512 26.6378 2.62103 26.8236 2.73673 26.9843C2.85244 27.1449 3.00464 27.2757 3.18081 27.366C3.35698 27.4563 3.55207 27.5035 3.75003 27.5036C3.88424 27.5034 4.01757 27.4819 4.14503 27.4399L10.895 25.1899C10.9113 25.1899 10.9238 25.1736 10.94 25.1686C10.9563 25.1636 10.9913 25.1424 11.0175 25.1299C11.1363 25.0762 11.2457 25.0036 11.3413 24.9149C11.3538 24.9036 11.3713 24.8999 11.3825 24.8874L27.1325 9.13739C27.3669 8.90298 27.4985 8.58509 27.4985 8.25364C27.4985 7.92218 27.3669 7.6043 27.1325 7.36989L22.6325 2.86989C22.3981 2.63555 22.0802 2.50391 21.7488 2.50391C21.4173 2.50391 21.0994 2.63555 20.865 2.86989L5.11503 18.6199C5.10378 18.6286 5.10003 18.6499 5.08753 18.6624ZM21.75 5.52114L24.4825 8.25364L10.5 22.2361L9.13378 20.8699L7.76753 19.5036L21.75 5.52114ZM6.54628 21.8174L7.36628 22.6374L8.18628 23.4574L5.72628 24.2774L6.54628 21.8174Z" fill="currentColor"/>
</svg>