<svg xmlns="http://www.w3.org/2000/svg" viewBox="0 0 24 24" fill="none">
    <g clip-path="url(#clip0_2084_34)">
        <path d="M0.000223438 18C0.000223438 18.416 0.144223 18.776 0.432223 19.08C0.720223 19.384 1.08022 19.528 1.51222 19.512H3.00022C4.02422 19.512 5.00022 19.312 5.92822 18.912C6.85622 18.512 7.64822 17.976 8.30422 17.304C8.96022 16.632 9.49622 15.832 9.91222 14.904C10.3282 13.976 10.5282 13.008 10.5122 12C10.5122 10.768 10.9442 9.712 11.8082 8.832C12.6722 7.952 13.7362 7.512 15.0002 7.512H18.0002V9C18.0002 9.336 18.0962 9.62401 18.2882 9.86401C18.4802 10.104 18.6962 10.28 18.9362 10.392C19.1762 10.504 19.4562 10.536 19.7762 10.488C20.0962 10.44 20.3602 10.304 20.5682 10.08L23.5682 7.08C23.8722 6.76 24.0162 6.4 24.0002 6C23.9842 5.6 23.8402 5.248 23.5682 4.944L20.5682 1.944C20.3282 1.72 20.0562 1.584 19.7522 1.536C19.4482 1.488 19.1682 1.52 18.9122 1.632C18.6562 1.744 18.4402 1.92 18.2642 2.16C18.0882 2.4 18.0002 2.68 18.0002 3V4.512H15.0002C13.9922 4.512 13.0242 4.712 12.0962 5.112C11.1682 5.512 10.3682 6.04 9.69622 6.696C9.02422 7.35201 8.48822 8.152 8.08822 9.096C7.68822 10.04 7.49622 11.008 7.51222 12C7.51222 13.248 7.07222 14.312 6.19222 15.192C5.31222 16.072 4.24822 16.512 3.00022 16.512H1.51222C1.09622 16.512 0.736223 16.656 0.432223 16.944C0.128223 17.232 -0.0157766 17.584 0.000223438 18ZM0.000223438 6.024C0.000223438 6.44 0.144223 6.792 0.432223 7.08C0.720223 7.368 1.08022 7.512 1.51222 7.512H3.00022C3.70422 7.512 4.35222 7.664 4.94422 7.968C5.53622 8.272 6.05622 8.688 6.50422 9.216C6.84022 8.192 7.33622 7.272 7.99222 6.456C6.53622 5.16 4.87222 4.512 3.00022 4.512H1.51222C1.09622 4.512 0.736223 4.664 0.432223 4.968C0.128223 5.272 -0.0157766 5.624 0.000223438 6.024ZM10.0322 17.592C11.4562 18.872 13.1122 19.512 15.0002 19.512H18.0002V21.024C18.0002 21.344 18.0962 21.632 18.2882 21.888C18.4802 22.144 18.6962 22.32 18.9362 22.416C19.1762 22.512 19.4562 22.536 19.7762 22.488C20.0962 22.44 20.3602 22.304 20.5682 22.08L23.5682 19.08C23.8722 18.776 24.0162 18.416 24.0002 18C23.9842 17.584 23.8402 17.24 23.5682 16.968L20.5682 13.968C20.3282 13.728 20.0562 13.584 19.7522 13.536C19.4482 13.488 19.1682 13.52 18.9122 13.632C18.6562 13.744 18.4402 13.928 18.2642 14.184C18.0882 14.44 18.0002 14.72 18.0002 15.024V16.512H15.0002C14.3122 16.512 13.6642 16.368 13.0562 16.08C12.4482 15.792 11.9362 15.376 11.5202 14.832C11.1682 15.856 10.6722 16.776 10.0322 17.592Z" fill="currentColor"/>
    </g>
    <defs>
        <clipPath id="clip0_2084_34">
            <rect width="24" height="24" fill="white"/>
        </clipPath>
    </defs>
</svg>