<svg width="30" height="30" viewBox="0 0 30 30" fill="none" xmlns="http://www.w3.org/2000/svg">
    <path d="M15 6.12903C15.5879 6.12903 16.0645 5.65243 16.0645 5.06452C16.0645 4.47661 15.5879 4 15 4V6.12903ZM26 15C26 14.4121 25.5234 13.9355 24.9355 13.9355C24.3476 13.9355 23.871 14.4121 23.871 15H26ZM24.9355 6.12903C25.5234 6.12903 26 5.65243 26 5.06452C26 4.47661 25.5234 4 24.9355 4V6.12903ZM19.1332 4C18.5453 4 18.0686 4.47661 18.0686 5.06452C18.0686 5.65243 18.5453 6.12903 19.1332 6.12903V4ZM26 5.06452C26 4.47661 25.5234 4 24.9355 4C24.3476 4 23.871 4.47661 23.871 5.06452H26ZM23.871 10.9421C23.871 11.53 24.3476 12.0066 24.9355 12.0066C25.5234 12.0066 26 11.53 26 10.9421H23.871ZM25.6882 5.81724C26.1039 5.40153 26.1039 4.7275 25.6882 4.31179C25.2724 3.89607 24.5985 3.89607 24.1828 4.31179L25.6882 5.81724ZM14.2473 14.2473C13.8316 14.663 13.8316 15.337 14.2473 15.7527C14.663 16.1684 15.337 16.1684 15.7527 15.7527L14.2473 14.2473ZM15 4H10.7419V6.12903H15V4ZM10.7419 4C7.01847 4 4 7.01847 4 10.7419H6.12903C6.12903 8.19429 8.19429 6.12903 10.7419 6.12903V4ZM4 10.7419V19.2581H6.12903V10.7419H4ZM4 19.2581C4 22.9816 7.01847 26 10.7419 26V23.871C8.19429 23.871 6.12903 21.8057 6.12903 19.2581H4ZM10.7419 26H19.2581V23.871H10.7419V26ZM19.2581 26C22.9816 26 26 22.9816 26 19.2581H23.871C23.871 21.8057 21.8057 23.871 19.2581 23.871V26ZM26 19.2581V15H23.871V19.2581H26ZM24.9355 4H19.1332V6.12903H24.9355V4ZM23.871 5.06452V10.9421H26V5.06452H23.871ZM24.1828 4.31179L14.2473 14.2473L15.7527 15.7527L25.6882 5.81724L24.1828 4.31179Z"
          fill="currentColor"/>
</svg>
