<svg xmlns="http://www.w3.org/2000/svg" viewBox="0 0 24 24" fill="none">
    <g clip-path="url(#clip0_2078_19)">
        <mask id="mask0_2078_19" style="mask-type:luminance" maskUnits="userSpaceOnUse" x="0" y="0" width="24" height="24">
            <path d="M0 0H24V24H0V0Z" fill="white"/>
        </mask>
        <g mask="url(#mask0_2078_19)">
            <mask id="mask1_2078_19" style="mask-type:luminance" maskUnits="userSpaceOnUse" x="0" y="0" width="24" height="24">
                <path d="M0 0H24V24H0V0Z" fill="white"/>
            </mask>
            <g mask="url(#mask1_2078_19)">
                <path d="M12.4021 8.31308C11.8876 8.28619 11.3733 8.3685 10.8929 8.55462C10.4125 8.74074 9.97696 9.02644 9.6149 9.39294C9.25285 9.75944 8.97247 10.1984 8.79222 10.681C8.61197 11.1637 8.53593 11.679 8.5691 12.1931C8.53625 12.7071 8.61252 13.2223 8.79288 13.7048C8.97325 14.1872 9.25363 14.6261 9.61562 14.9925C9.97761 15.359 10.413 15.6447 10.8933 15.8309C11.3735 16.0171 11.8877 16.0997 12.4021 16.0731C12.9165 16.0997 13.4307 16.0171 13.9109 15.8309C14.3912 15.6447 14.8266 15.359 15.1886 14.9925C15.5506 14.6261 15.8309 14.1872 16.0113 13.7048C16.1917 13.2223 16.2679 12.7071 16.2351 12.1931C16.2683 11.679 16.1922 11.1637 16.012 10.681C15.8317 10.1984 15.5513 9.75944 15.1893 9.39294C14.8272 9.02644 14.3917 8.74074 13.9113 8.55462C13.4309 8.3685 12.9166 8.28619 12.4021 8.31308Z" fill="currentColor"/>
                <path d="M12.352 8.4C14.121 8.4 16.159 9.328 18.289 12.122V12.262C18.289 12.262 15.918 15.933 12.412 15.933C10.643 15.933 8.587 14.999 6.4 12.188V12.048C6.4 12.048 8.846 8.4 12.352 8.4ZM12.352 7C8.152 7 5.352 11.094 5.238 11.268C5.08302 11.4986 5.00017 11.7701 5 12.048V12.188C5.00135 12.5001 5.10694 12.8028 5.3 13.048C7.512 15.891 9.906 17.333 12.417 17.333C16.636 17.333 19.356 13.198 19.47 13.022C19.6163 12.7955 19.6941 12.5316 19.694 12.262V12.122C19.6939 11.8152 19.5931 11.5169 19.407 11.273C17.245 8.438 14.873 7 12.357 7" fill="currentColor"/>
            </g>
        </g>
    </g>
    <defs>
        <clipPath id="clip0_2078_19">
            <rect width="24" height="24" fill="white"/>
        </clipPath>
    </defs>
</svg>