<svg xmlns="http://www.w3.org/2000/svg" viewBox="0 0 24 24" fill="none">
    <path d="M23.1941 9.00204L22.7442 8.99449C22.7442 8.99449 22.3499 7.77626 20.0763 7.68677C18.2764 7.61561 16.4256 7.73824 14.7997 8.0029C13.5333 8.20849 13.0174 9.03621 12.7538 9.03161L12 9.01943L11.2461 9.03152C10.9824 9.03611 10.4666 8.20844 9.20018 8.0028C7.57432 7.73815 5.72356 7.61552 3.92356 7.68668C1.65007 7.77621 1.25571 8.9944 1.25571 8.9944L0.805805 9.00194C0.353415 9.00916 -0.00747608 9.382 0.000117674 9.83454L0.014227 10.7143C0.0198052 11.0531 0.233415 11.3541 0.551696 11.4702L0.844993 11.5774C0.844993 11.5774 1.3354 13.1439 2.09866 14.4582C3.18424 16.3271 5.15491 16.4717 7.2169 16.2596C10.0897 15.9638 10.686 13.238 10.9244 12.4297C11.3891 10.8534 12 11.0314 12 11.0314C12 11.0314 12.6109 10.8534 13.0756 12.4297C13.314 13.238 13.9104 15.9638 16.7831 16.2596C18.8451 16.4717 20.8158 16.3271 21.9013 14.4582C22.6646 13.144 23.155 11.5774 23.155 11.5774L23.4483 11.4702C23.7665 11.3541 23.9802 11.0531 23.9858 10.7143L23.9999 9.83454C24.0074 9.3821 23.6465 9.00926 23.1941 9.00204ZM9.39068 12.3472C9.25296 12.7167 9.08852 13.0765 8.90862 13.431C8.5294 14.178 7.97323 14.7213 7.06324 14.8109C6.68646 14.848 6.35773 14.8683 6.05834 14.8732C4.3151 14.9014 3.75256 14.3793 3.40409 13.8111C2.86235 12.9263 2.61363 12.1481 2.5197 11.5212C2.25326 9.74285 3.95205 9.44538 5.29343 9.5074C6.41459 9.55924 7.71893 9.54443 8.81074 9.81011C9.32243 9.93471 9.64038 10.3003 9.68988 10.6889C9.76188 11.2529 9.64301 11.6713 9.39068 12.3472ZM21.4803 11.5211C21.3863 12.1481 21.1376 12.9263 20.5959 13.811C20.2474 14.3793 19.6849 14.9014 17.9416 14.8732C17.6422 14.8682 17.3134 14.8479 16.9367 14.8108C16.0267 14.7213 15.4706 14.1779 15.0913 13.4309C14.9114 13.0765 14.747 12.7167 14.6093 12.3471C14.3569 11.6713 14.2381 11.2528 14.31 10.6888C14.3596 10.3002 14.6775 9.93457 15.1892 9.80997C16.281 9.54433 17.5853 9.5591 18.7065 9.50726C20.0478 9.44538 21.7467 9.7428 21.4803 11.5211Z" fill="currentColor"/>
</svg>