<svg xmlns="http://www.w3.org/2000/svg" viewBox="0 0 24 24" fill="none">
    <g clip-path="url(#clip0_2078_40)">
        <mask id="mask0_2078_40" style="mask-type:luminance" maskUnits="userSpaceOnUse" x="0" y="0" width="24" height="24">
            <path d="M0 0H24V24H0V0Z" fill="white"/>
        </mask>
        <g mask="url(#mask0_2078_40)">
            <mask id="mask1_2078_40" style="mask-type:luminance" maskUnits="userSpaceOnUse" x="0" y="0" width="24" height="24">
                <path d="M0 0H24V24H0V0Z" fill="white"/>
            </mask>
            <g mask="url(#mask1_2078_40)">
                <path d="M3.88479 15.6459C3.83965 16.6685 3.8751 17.693 3.99079 18.7099L6.12179 18.6679C6.12179 14.2149 6.26379 12.447 8.71479 12.987C8.71479 12.987 9.12379 9.91595 11.3318 11.1969C12.6188 11.9439 11.7788 15.5109 14.8578 16.2089C14.8968 16.1359 14.9088 13.7289 14.9298 13.6499C15.6093 14.7913 16.5953 15.7191 17.7758 16.3279L17.9008 18.6439H20.4368C20.6168 18.1809 20.7368 14.6939 20.7898 14.2129C20.7798 14.2229 21.8898 14.3519 21.8748 14.3809C21.8417 13.2694 21.5899 12.1753 21.1336 11.1612C20.6774 10.1472 20.0257 9.23296 19.2158 8.47095C16.5088 6.25095 15.0578 5.99995 11.4998 6.57095C11.7412 6.14652 11.9586 5.70883 12.1508 5.25995C8.11979 4.99295 6.13979 7.09995 5.92179 8.34295C1.92179 9.59695 2.65179 14.5789 2.85679 16.0339L3.88479 15.6459Z" fill="currentColor"/>
            </g>
        </g>
    </g>
    <defs>
        <clipPath id="clip0_2078_40">
            <rect width="24" height="24" fill="white"/>
        </clipPath>
    </defs>
</svg>