<svg xmlns="http://www.w3.org/2000/svg" viewBox="0 0 24 24" fill="none">
    <g clip-path="url(#clip0_2078_30)">
        <mask id="mask0_2078_30" style="mask-type:luminance" maskUnits="userSpaceOnUse" x="0" y="0" width="24" height="24">
            <path d="M0 0H24V24H0V0Z" fill="white"/>
        </mask>
        <g mask="url(#mask0_2078_30)">
            <mask id="mask1_2078_30" style="mask-type:luminance" maskUnits="userSpaceOnUse" x="0" y="0" width="24" height="24">
                <path d="M0 0H24V24H0V0Z" fill="white"/>
            </mask>
            <g mask="url(#mask1_2078_30)">
                <path d="M21.3301 9.29989C19.9001 8.14789 17.6121 4.97389 14.7651 4.97389C14.2957 4.96579 13.8296 5.0556 13.3968 5.23759C12.964 5.41957 12.5738 5.68975 12.2511 6.03089C12.2282 6.06185 12.1993 6.08793 12.1661 6.1076C12.133 6.12726 12.0963 6.14013 12.0581 6.14543C12.0199 6.15074 11.9811 6.14838 11.9438 6.1385C11.9066 6.12862 11.8717 6.11142 11.8411 6.08789C11.8193 6.07161 11.7998 6.05244 11.7831 6.03089C11.4605 5.68975 11.0703 5.41957 10.6375 5.23759C10.2046 5.0556 9.73861 4.96579 9.26913 4.97389C6.56013 4.97389 4.31613 8.29889 2.66913 9.26289C2.55945 9.34782 2.48141 9.46708 2.44751 9.6016C2.41361 9.73612 2.4258 9.87812 2.48213 10.0049C5.66413 18.6759 10.5601 18.9699 12.2031 18.9699C13.7611 18.9699 18.7261 19.3309 21.5391 10.0449C21.5842 9.91419 21.5883 9.77287 21.5509 9.63977C21.5136 9.50667 21.4366 9.38811 21.3301 9.29989ZM18.3441 10.9999C15.5531 14.6529 12.1741 14.4819 12.0101 14.4739C11.8461 14.4839 8.45313 14.6549 5.66013 10.9789C5.63923 10.9508 5.62409 10.9188 5.61559 10.8848C5.60709 10.8508 5.60539 10.8154 5.61059 10.7807C5.6158 10.7461 5.6278 10.7128 5.64591 10.6828C5.66402 10.6528 5.68789 10.6266 5.71613 10.6059H5.72113C6.49213 10.2549 8.82813 9.24689 9.98813 9.41489C10.5779 9.49091 11.1396 9.71182 11.6231 10.0579C11.7345 10.1424 11.8704 10.1882 12.0101 10.1882C12.1499 10.1882 12.2858 10.1424 12.3971 10.0579C12.8805 9.71111 13.4422 9.4895 14.0321 9.41289C15.1811 9.24889 17.4821 10.2339 18.2761 10.5939C18.3382 10.6378 18.3805 10.7044 18.3939 10.7792C18.4074 10.854 18.3909 10.9311 18.3481 10.9939V10.9989" fill="currentColor"/>
            </g>
        </g>
    </g>
    <defs>
        <clipPath id="clip0_2078_30">
            <rect width="24" height="24" fill="white"/>
        </clipPath>
    </defs>
</svg>