<svg xmlns="http://www.w3.org/2000/svg" viewBox="0 0 24 24" fill="none">
    <g clip-path="url(#clip0_2078_50)">
        <mask id="mask0_2078_50" style="mask-type:luminance" maskUnits="userSpaceOnUse" x="0" y="0" width="24" height="24">
            <path d="M0 0H24V24H0V0Z" fill="white"/>
        </mask>
        <g mask="url(#mask0_2078_50)">
            <mask id="mask1_2078_50" style="mask-type:luminance" maskUnits="userSpaceOnUse" x="0" y="0" width="24" height="24">
                <path d="M0 0H24V24H0V0Z" fill="white"/>
            </mask>
            <g mask="url(#mask1_2078_50)">
                <path d="M21.2662 12.2729C21.173 11.938 20.9727 11.6428 20.6958 11.4326C20.4189 11.2223 20.0808 11.1086 19.7332 11.1089H19.4192C19.4138 11.0883 19.4118 11.0671 19.4132 11.0459V10.5359C19.4153 9.90251 19.3712 9.26982 19.2812 8.64288C19.2246 8.21743 19.1305 7.79781 19.0002 7.38888C18.7031 6.56705 18.1766 5.84763 17.4832 5.31588C16.8498 4.81624 16.1327 4.43327 15.3652 4.18488C14.6322 3.93933 13.8712 3.78713 13.1002 3.73188C12.5658 3.69079 12.0295 3.68277 11.4942 3.70788C10.9862 3.73517 10.4809 3.79934 9.98217 3.89988C9.22935 4.04343 8.49692 4.27851 7.80117 4.59988C7.2517 4.85261 6.73957 5.17968 6.27917 5.57188C5.86275 5.90852 5.51912 6.32632 5.26917 6.79988C4.98558 7.45151 4.82001 8.14834 4.78017 8.85788C4.74817 9.13888 4.74417 9.42188 4.72617 9.70388C4.70017 10.1279 4.71417 10.5499 4.71517 10.9729C4.71826 11.0182 4.71826 11.0636 4.71517 11.1089H4.27517C4.06344 11.1026 3.85259 11.1388 3.65504 11.2152C3.45749 11.2916 3.27724 11.4068 3.12488 11.554C2.97252 11.7012 2.85115 11.8773 2.76791 12.0721C2.68466 12.2669 2.64122 12.4764 2.64016 12.6882C2.63909 12.9 2.68041 13.1099 2.76169 13.3055C2.84297 13.5011 2.96256 13.6785 3.11342 13.8272C3.26429 13.9759 3.44338 14.0929 3.64015 14.1713C3.83692 14.2497 4.04739 14.288 4.25917 14.2839C4.37224 14.3048 4.48724 14.3136 4.60217 14.3099C4.78117 14.3039 4.78317 14.3099 4.80217 14.4859C4.88123 15.182 5.08159 15.8589 5.39417 16.4859C5.76133 17.2382 6.27703 17.9083 6.91017 18.4559C7.48178 18.952 8.13112 19.3506 8.83217 19.6359C9.99916 20.1117 11.2583 20.3188 12.5162 20.2419C12.963 20.2167 13.4077 20.1616 13.8472 20.0769C14.7893 19.9048 15.6884 19.5491 16.4932 19.0299C17.1277 18.6171 17.6866 18.0982 18.1452 17.4959C18.5681 16.943 18.8916 16.3207 19.1012 15.6569C19.2188 15.2754 19.3077 14.8856 19.3672 14.4909C19.3782 14.4199 19.4092 14.3819 19.4832 14.3809C19.5242 14.3809 19.5652 14.3649 19.6052 14.3639C19.797 14.358 19.9856 14.3127 20.1592 14.2309C20.5646 14.1181 20.9087 13.8492 21.1162 13.4831C21.3237 13.117 21.3776 12.6836 21.2662 12.2779M8.55017 12.8579C8.19911 12.8579 7.85593 12.7538 7.56403 12.5587C7.27214 12.3637 7.04463 12.0865 6.91029 11.7621C6.77594 11.4378 6.74079 11.0809 6.80928 10.7366C6.87777 10.3923 7.04682 10.076 7.29506 9.82777C7.5433 9.57953 7.85957 9.41048 8.20389 9.34199C8.5482 9.2735 8.9051 9.30865 9.22943 9.443C9.55377 9.57734 9.83099 9.80485 10.026 10.0967C10.2211 10.3886 10.3252 10.7318 10.3252 11.0829C10.3249 11.5536 10.1378 12.0049 9.80499 12.3377C9.47217 12.6705 9.02085 12.8576 8.55017 12.8579ZM14.7592 16.0499L14.6152 15.8499L14.7582 16.0569C14.0308 16.5615 13.1665 16.8316 12.2812 16.8309C11.3526 16.8187 10.4449 16.5531 9.65617 16.0629C9.5752 16.01 9.50556 15.9415 9.45129 15.8614C9.39701 15.7813 9.35919 15.6913 9.34003 15.5965C9.32086 15.5017 9.32073 15.404 9.33964 15.3091C9.35854 15.2143 9.39612 15.1241 9.45017 15.0439C9.55884 14.8838 9.72625 14.773 9.91608 14.7356C10.1059 14.6981 10.3029 14.737 10.4642 14.8439C10.9831 15.1749 11.5857 15.3507 12.2012 15.3507C12.8166 15.3507 13.4193 15.1749 13.9382 14.8439C14.0986 14.7415 14.2925 14.7057 14.4789 14.7441C14.6653 14.7824 14.8294 14.892 14.9363 15.0494C15.0431 15.2068 15.0845 15.3997 15.0514 15.5871C15.0183 15.7745 14.9135 15.9416 14.7592 16.0529M15.4532 12.8599C15.1021 12.8599 14.7589 12.7558 14.467 12.5607C14.1751 12.3657 13.9476 12.0885 13.8133 11.7641C13.6789 11.4398 13.6438 11.0829 13.7123 10.7386C13.7808 10.3943 13.9498 10.078 14.1981 9.82977C14.4463 9.58153 14.7626 9.41248 15.1069 9.34399C15.4512 9.2755 15.8081 9.31065 16.1324 9.445C16.4568 9.57934 16.734 9.80685 16.929 10.0987C17.1241 10.3906 17.2282 10.7338 17.2282 11.0849C17.2282 11.5556 17.0412 12.0071 16.7083 12.34C16.3754 12.6729 15.9239 12.8599 15.4532 12.8599Z" fill="currentColor"/>
            </g>
        </g>
    </g>
    <defs>
        <clipPath id="clip0_2078_50">
            <rect width="24" height="24" fill="white"/>
        </clipPath>
    </defs>
</svg>